<svg xmlns="http://www.w3.org/2000/svg" width="200" height="170" viewBox="0 0 200 170"><g><g><g/><g><g><path fill="#acabb1" d="M141.3 161.083h11.087a10.914 10.914 0 0 1-.217-2.173c0-6.003 4.866-10.87 10.87-10.87H141.3z"/></g><g><path fill="#acabb1" d="M128.26 148.04h-21.74c6.003 0 10.87 4.867 10.87 10.87 0 .744-.076 1.471-.218 2.173h11.087z"/></g><g><path fill="#acabb1" d="M128.26 87.17v13.043h13.043V87.17h-6.521z"/></g><g><path fill="#acabb1" d="M141.304 117.61H128.26v30.435h13.044z"/></g><g><path fill="#565659" d="M128.26 161.083v8.696h13.043V148.04H128.26z"/></g><g><path fill="#f47a60" d="M134.78.22H99.998L95.65 39.35h39.13z"/></g><g><path fill="#f47a60" d="M134.78 65.43H95.65v21.74h39.13z"/></g><g><path fill="#7fe7dc" d="M134.78 87.17H173.91V65.43h-39.13z"/></g><g><path fill="#7fe7dc" d="M173.91 39.35L169.563.22H134.78v39.13z"/></g><g><path fill="#7fe7dc" d="M95.65 100.22v17.391h78.261V100.22h-45.652z"/></g><g><path fill="#565659" d="M106.52 148.04c-6.003 0-10.87 4.867-10.87 10.87 0 6.003 4.867 10.87 10.87 10.87 5.258 0 9.644-3.736 10.651-8.697.143-.702.218-1.429.218-2.173 0-6.003-4.866-10.87-10.87-10.87z"/></g><g><path fill="#565659" d="M152.17 158.91c0 .744.075 1.471.218 2.174 1.007 4.96 5.393 8.695 10.652 8.695 6.003 0 10.87-4.866 10.87-10.87 0-6.002-4.867-10.869-10.87-10.869-6.003 0-10.87 4.867-10.87 10.87z"/></g><g><path fill="#a0815c" d="M95.652 39.35v26.087H82.61v91.305H13.043v13.043H0V39.35zm-26.087 65.217H13.044v39.131h56.521zm0-52.173H13.044v39.13h56.521z"/></g><g><path fill="#786145" d="M134.78 39.35H95.65v26.087h91.304v104.348h13.044V39.35z"/></g><g><path fill="#b39a7d" d="M69.562 52.39v39.13H13.04V52.39zM56.518 65.433H26.084v13.044h30.434z"/></g><g><path fill="#50412e" d="M56.525 65.43H26.09v13.043h30.435z"/></g><g><path fill="#b39a7d" d="M13.04 104.57h56.522v39.13H13.04zm13.044 26.087h30.434v-13.043H26.083z"/></g><g><path fill="#50412e" d="M56.525 117.61H26.09v13.043h30.435z"/></g></g></g></g></svg>