<svg xmlns="http://www.w3.org/2000/svg" width="186" height="200" viewBox="0 0 186 200"><g><g><g/><g><g><path fill="#cf5530" d="M114.144 177.048v-15.142c-4.97-.554-7.956-2.36-10.635-3.989-2.196-1.335-4.167-2.527-7.319-3.007v22.137h17.954z"/></g><g><path fill="#cf5530" d="M82.484 157.917c-2.679 1.63-5.664 3.434-10.634 3.988v15.142h17.954V154.91c-3.153.48-5.123 1.672-7.32 3.007z"/></g><g><path fill="#6f362d" d="M114.14 183.43H71.85v10.19h42.29z"/></g><g><path fill="#6f362d" d="M114.14 155.47v-17.36H71.85v17.36c3.152-.48 5.123-1.672 7.319-3.007 3.21-1.951 6.848-4.163 13.826-4.163 6.978 0 10.616 2.212 13.826 4.163 2.196 1.336 4.167 2.527 7.32 3.008z"/></g><g><path fill="#6f362d" d="M69.594 63.45H51.56v29.106h18.034z"/></g><g><path fill="#6f362d" d="M134.445 63.45H116.41v29.106h18.035z"/></g><g><path fill="#f47a60" d="M140.83 118.52v12.445l12.445-12.445z"/></g><g><path fill="#f47a60" d="M174.881 118.52h-12.58l-21.471 21.472v53.624h34.051z"/></g><g><path fill="#f47a60" d="M134.447 138.671V118.52H51.56v75.096h13.915v-58.702a3.192 3.192 0 0 1 3.192-3.192h48.673a3.192 3.192 0 0 1 3.192 3.192v58.702h13.915V138.67z"/></g><g><path fill="#f47a60" d="M45.175 130.965V118.52H32.73z"/></g><g><path fill="#f47a60" d="M45.172 139.992L23.7 118.52H11.12v75.096h34.051z"/></g><g><path fill="#7fe7dc" d="M11.12 112.135V43.859h23.074a3.192 3.192 0 0 0 3.191-3.192V18.873h58.673a3.192 3.192 0 0 0 0-6.383H37.385V6.38h111.226v18.603H96.058a3.192 3.192 0 0 0 0 6.383h52.552v9.301a3.192 3.192 0 0 0 3.192 3.192h23.074v68.276zm108.768-74.66a3.192 3.192 0 1 0 0 6.384h19.148a3.192 3.192 0 1 0 0-6.383zM108.96 92.55a3.192 3.192 0 0 0 0 6.383h32.928a3.192 3.192 0 1 0 0-6.383h-1.064V60.252a3.191 3.191 0 0 0-3.191-3.191h-24.418a3.192 3.192 0 0 0-3.191 3.191V92.55zM71.721 24.983a3.192 3.192 0 0 0 0 6.383h11.57a3.192 3.192 0 0 0 0-6.383zM44.108 92.55a3.192 3.192 0 0 0 0 6.383h32.928a3.192 3.192 0 0 0 0-6.383h-1.064V60.252a3.192 3.192 0 0 0-3.192-3.191H48.363a3.192 3.192 0 0 0-3.192 3.191V92.55z"/></g><g><path fill="#201e20" d="M44.111 98.932a3.192 3.192 0 0 1 0-6.383h1.064V60.251a3.192 3.192 0 0 1 3.192-3.191h24.417a3.192 3.192 0 0 1 3.192 3.191V92.55h1.064a3.192 3.192 0 0 1 0 6.383zm7.447-35.489v29.106h18.035V63.443z"/></g><g><path fill="#201e20" d="M108.961 98.932a3.192 3.192 0 0 1 0-6.383h1.064V60.251a3.192 3.192 0 0 1 3.192-3.191h24.417a3.192 3.192 0 0 1 3.192 3.191V92.55h1.064a3.192 3.192 0 0 1 0 6.383zm7.447-35.489v29.106h18.035V63.443z"/></g><g><path fill="#201e20" d="M71.721 31.373h11.571a3.192 3.192 0 0 0 0-6.383h-11.57a3.192 3.192 0 0 0 0 6.383z"/></g><g><path fill="#201e20" d="M119.891 43.863h19.149a3.192 3.192 0 0 0 0-6.383h-19.149a3.192 3.192 0 0 0 0 6.383z"/></g><g><path fill="#201e20" d="M182.321 112.138a3.192 3.192 0 0 1 0 6.383h-1.064v78.288a3.191 3.191 0 0 1-3.191 3.191H7.926a3.192 3.192 0 0 1-3.19-3.191v-78.288H3.67a3.192 3.192 0 0 1 0-6.383h1.064V43.862H3.671a3.192 3.192 0 0 1 0-6.383h27.33V6.383h-1.064a3.192 3.192 0 0 1 0-6.383h126.118a3.192 3.192 0 1 1 0 6.383h-1.063v31.096h27.329a3.192 3.192 0 0 1 0 6.383h-1.064v68.276zm-137.15 81.479v-53.624l-21.473-21.472h-12.58v75.096zm-.001-75.096H32.725l12.445 12.445zm68.971 75.096v-10.19h-42.29v10.19zm-24.336-38.71c-3.153.48-5.123 1.672-7.32 3.007-2.679 1.629-5.664 3.434-10.634 3.988v15.142h17.954zm24.336 22.137v-15.141c-4.97-.554-7.955-2.36-10.635-3.989-2.195-1.335-4.166-2.527-7.318-3.007v22.137zm0-21.577v-17.361h-42.29v17.361c3.152-.48 5.123-1.672 7.319-3.007 3.21-1.951 6.848-4.163 13.826-4.163 6.978 0 10.616 2.212 13.826 4.163 2.196 1.335 4.167 2.527 7.319 3.007zm20.298-16.797v-20.149H51.553v75.096h13.915v-58.702a3.192 3.192 0 0 1 3.192-3.192h48.673a3.192 3.192 0 0 1 3.191 3.192v58.702h13.916V138.67zm40.435-20.149h-12.58l-21.471 21.472v53.624h34.051zm-21.606 0h-12.445v12.445zm21.606-6.383V43.862H151.8a3.191 3.191 0 0 1-3.191-3.192V31.37H96.056a3.192 3.192 0 0 1 0-6.383h52.553V6.383H37.383v6.11h58.673a3.192 3.192 0 0 1 0 6.383H37.383V40.67a3.192 3.192 0 0 1-3.191 3.192H11.118v68.276z"/></g></g></g></g></svg>