<svg xmlns="http://www.w3.org/2000/svg" width="200" height="197" viewBox="0 0 200 197"><g><g><g><g><path fill="#7fe7dc" d="M2.93 160.336v31.824c0 .974.797 1.782 1.783 1.782h190.564c.985 0 1.794-.808 1.794-1.782v-31.824c0-.975-.809-1.783-1.794-1.783h-24.87c-1.24 0-1.284-.011-2.38.354l-43.051 14.484-16.388-13.654c-1.528-1.284-1.085-1.184-3.067-1.184H68.249c-.387 0-.387-.033-.741.133L48.595 167.6l-10.12 4.772c-.632.288-.71.144-1.163-.332l-12.59-13.487H4.712c-.985 0-1.782.808-1.782 1.783z"/></g></g><g><g><path fill="#acacac" d="M50.937 132.66l-2.347 34.936 18.913-8.914c.354-.166.354-.133.741-.133l1.617-24.582z"/></g></g><g><g><path fill="#838383" d="M60.938 133.35L59 162.694l8.504-4.009c.354-.166.354-.133.742-.133l1.617-24.582z"/></g></g><g><g><path fill="#7fe7dc" d="M52.637 70.527l-5.813 13.1c-.067 1.062.742 2.037 1.804 2.07l27.328.941 2.115-30.927c1.108-16.078-23.198-17.739-24.305-1.66z"/></g></g><g><g><path fill="#f47a60" d="M68.888 55.089l-1.805 26.254 9.19.631 1.794-26.254c.698-10.11-8.648-14.517-15.967-12.402 4.108 1.827 7.197 5.802 6.787 11.77z"/></g></g><g><g><path fill="#7fe7dc" d="M132.31 43.89v40.738h13.21a1.942 1.942 0 0 0 1.938-1.949l.01-17.783V43.89z"/></g></g><g><g><path fill="#f47a60" d="M139.879 51.71v30.972a1.951 1.951 0 0 1-1.949 1.949h7.585a1.942 1.942 0 0 0 1.938-1.95v-7.806l.01-9.977V51.71z"/></g></g><g><g><path fill="#fed1a3" d="M132.303 76.805H114.62c-3.71 0-6.787 3.056-6.787 6.765 0 3.699 3.023 6.722 6.71 6.744h-2.769c-3.72 0-6.754 3.034-6.754 6.755 0 3.71 3.034 6.743 6.754 6.743h4.95c-3.71 0-6.743 3.034-6.743 6.744 0 3.72 3.034 6.755 6.743 6.755h5.614c-3.245 0-5.902 2.657-5.902 5.902 0 3.255 2.657 5.913 5.902 5.913h30.816c3.897 0 7.186-2.005 9.379-4.928 3.344-4.463 6.931-3.444 14.66-3.422V78.953c-2.569-.033-3.244-.476-6.068-3.278-4.939-4.883-7.85-10.785-14.804-10.785h-8.858l-.011 9.977a1.94 1.94 0 0 1-1.938 1.938z"/></g></g><g><g><path fill="#ffbc85" d="M125.89 83.69h-18.06c.066 3.654 3.056 6.61 6.71 6.633h11.35a3.313 3.313 0 0 0 3.31-3.311 3.322 3.322 0 0 0-3.31-3.322z"/></g></g><g><g><path fill="#ffbc85" d="M127.288 97.18h-21.659c-.21 0-.41.022-.609.055.1 3.633 3.1 6.578 6.754 6.578h15.514a3.327 3.327 0 0 0 3.31-3.311c0-1.827-1.494-3.322-3.31-3.322z"/></g></g><g><g><path fill="#ffbc85" d="M131.306 110.68H109.98c.055 3.654 3.067 6.633 6.743 6.633h14.583a3.322 3.322 0 0 0 3.311-3.322 3.32 3.32 0 0 0-3.31-3.311z"/></g></g><g><g><path fill="#ffbc85" d="M163.356 123.22H116.44c0 3.255 2.657 5.913 5.902 5.913h30.816c3.897 0 7.186-2.004 9.379-4.928.265-.365.542-.686.819-.985z"/></g></g><g><g><path fill="#7bacdf" d="M177.19 78.957v44.79c0 2.913 2.392 5.294 5.304 5.294h5.36c2.922 0 5.303-2.381 5.303-5.293V77.373c0-2.912-2.38-5.293-5.304-5.293h-5.36c-2.911 0-5.303 2.38-5.303 5.293z"/></g></g><g><g><path fill="#3987d0" d="M177.19 120.784v2.968c0 2.912 2.392 5.293 5.304 5.293h5.36c2.922 0 5.303-2.381 5.303-5.293V113.21c0 2.912-2.38 5.293-5.304 5.293h-5.36c-2.911 0-5.303-2.38-5.303-5.293z"/></g></g><g><g><path fill="#fed1a3" d="M67.082 81.34l17.639 1.207c3.698.255 6.555 3.51 6.3 7.209-.254 3.687-3.465 6.51-7.153 6.278l2.769.189c3.698.254 6.522 3.487 6.267 7.197-.255 3.699-3.488 6.522-7.197 6.268l-4.94-.344c3.71.255 6.523 3.488 6.268 7.198-.255 3.699-3.488 6.522-7.186 6.268l-5.614-.388c3.244.222 5.713 3.056 5.492 6.301-.222 3.244-3.056 5.714-6.3 5.492L42.688 132.1c-3.886-.265-7.031-2.491-9.013-5.558-3.034-4.684-6.688-3.92-14.395-4.419L22.148 80.4c2.558.144 3.266-.255 6.278-2.857 5.26-4.53 8.57-10.221 15.513-9.745l8.837.609-.687 9.955a1.959 1.959 0 0 0 1.805 2.07z"/></g></g><g><g><path fill="#ffbc85" d="M73.011 88.637l18.005 1.24c-.31 3.633-3.5 6.379-7.143 6.157l-.033-.01-11.283-.776a3.327 3.327 0 0 1-3.09-3.532 3.336 3.336 0 0 1 3.544-3.079z"/></g></g><g><g><path fill="#ffbc85" d="M70.691 101.997l21.603 1.484c.2.023.399.056.598.1-.343 3.621-3.532 6.345-7.186 6.101l-4.939-.343-10.53-.72a3.337 3.337 0 0 1-3.09-3.543 3.336 3.336 0 0 1 3.544-3.079z"/></g></g><g><g><path fill="#ffbc85" d="M65.76 115.187l21.283 1.462c-.321 3.654-3.533 6.411-7.187 6.157-6.41-.443-8.15-.565-14.55-.997a3.337 3.337 0 0 1-3.089-3.543 3.336 3.336 0 0 1 3.544-3.079z"/></g></g><g><g><path fill="#ffbc85" d="M32.93 125.51l46.805 3.211c-.221 3.245-3.056 5.714-6.3 5.493l-30.739-2.115c-3.886-.266-7.03-2.492-9.013-5.559-.244-.376-.498-.72-.753-1.03z"/></g></g><g><g><path fill="#7bacdf" d="M22.154 80.398l-3.078 44.68c-.2 2.912-2.736 5.127-5.648 4.928l-5.36-.365c-2.9-.21-5.115-2.746-4.916-5.658L6.33 77.719c.2-2.901 2.746-5.116 5.647-4.917l5.36.366c2.912.199 5.126 2.746 4.916 5.647z"/></g></g><g><g><path fill="#3987d0" d="M19.286 122.119l-.21 2.956c-.2 2.912-2.736 5.127-5.648 4.928l-5.36-.365c-2.9-.21-5.115-2.746-4.916-5.659l.72-10.519c-.199 2.912 2.016 5.448 4.928 5.647l5.348.377c2.912.2 5.459-2.015 5.658-4.928z"/></g></g><g><g><path fill="#7fe7dc" d="M132.31 4.934v17.552h15.159V4.934a2.004 2.004 0 0 0-2.005-2.004h-11.15a2.004 2.004 0 0 0-2.004 2.004z"/></g></g><g><g><path fill="#acacac" d="M110.58 19.332v27.716c0 2.558 2.093 4.661 4.65 4.661h49.308c2.558 0 4.651-2.103 4.651-4.661V19.332c0-2.57-2.093-4.662-4.65-4.662H115.23c-2.558 0-4.651 2.093-4.651 4.662z"/></g></g><g><g><path fill="#f47a60" d="M139.894 4.934l-.01 9.733h7.584V4.934a2.004 2.004 0 0 0-2.004-2.004h-7.574c1.096 0 2.004.897 2.004 2.004z"/></g></g><g><g><path fill="#838383" d="M161.612 19.332v27.716c0 2.558-2.104 4.661-4.662 4.661h7.585c2.558 0 4.65-2.103 4.65-4.661V19.332c0-2.57-2.092-4.662-4.65-4.662h-7.585c2.558 0 4.662 2.093 4.662 4.662z"/></g></g><g><path fill="#201e20" d="M190.23 89.743V77.374a2.371 2.371 0 0 0-2.374-2.363h-5.36c-1.287 0-2.374 1.082-2.374 2.363v46.376c0 1.281 1.088 2.363 2.375 2.363h5.359a2.371 2.371 0 0 0 2.374-2.363v-20.485a2.93 2.93 0 1 1 5.86 0v20.485c0 4.534-3.694 8.223-8.234 8.223h-5.36c-4.54 0-8.233-3.689-8.233-8.223v-.085l-.72-.019c-5.385-.147-6.868-.085-8.666 2.315-2.908 3.877-7.18 6.1-11.723 6.1h-30.816c-4.87 0-8.832-3.967-8.832-8.843 0-1.174.233-2.295.65-3.321-4.09-1.129-7.105-4.886-7.105-9.336 0-1.628.406-3.163 1.12-4.511-3.56-1.431-6.081-4.914-6.081-8.976 0-3.408 1.772-6.41 4.441-8.136a9.61 9.61 0 0 1-1.628-5.362c0-5.346 4.358-9.695 9.717-9.695h14.754V54.637h-14.145c-4.18 0-7.58-3.406-7.58-7.592V19.33c0-4.186 3.4-7.591 7.58-7.591h14.145V4.934A4.94 4.94 0 0 1 134.307 0h11.15a4.94 4.94 0 0 1 4.934 4.934v6.803h14.145c4.18 0 7.58 3.406 7.58 7.592v27.716c0 4.186-3.4 7.591-7.58 7.591H150.39l-.004 7.33h5.934c6.614 0 10.223 4.159 13.714 8.182 1.003 1.156 2.04 2.35 3.15 3.449a58.528 58.528 0 0 0 1.434 1.394c1.026-3.375 4.168-5.84 7.878-5.84h5.36c4.54 0 8.233 3.69 8.233 8.223v12.369a2.93 2.93 0 1 1-5.859 0zm-54.998-78.005h9.3V5.858h-9.3zm29.304 37.039c.932 0 1.72-.793 1.72-1.732V19.328c0-.955-.772-1.732-1.72-1.732h-49.308c-.949 0-1.72.778-1.72 1.732v27.717c0 .939.787 1.732 1.72 1.732zm-29.304 5.86V73.88h9.289l.01-19.244zm39.03 63.165V81.514c-1.801-.532-3.112-1.681-5.202-3.755-1.267-1.252-2.378-2.533-3.453-3.772-3.415-3.936-5.53-6.163-9.288-6.163h-5.936l-.004 7.049a4.872 4.872 0 0 1-4.867 4.866h-30.893c-2.091 0-3.858 1.757-3.858 3.836a3.824 3.824 0 0 0 3.825 3.814s11.474.004 11.532.011a2.927 2.927 0 0 1-.059 5.84c-.048.005-11.473.008-11.473.008h-2.813a3.83 3.83 0 0 0-3.825 3.825 3.824 3.824 0 0 0 3.825 3.814h15.513a2.93 2.93 0 1 1 0 5.859h-10.563a3.819 3.819 0 0 0-3.814 3.815 3.824 3.824 0 0 0 3.814 3.825h14.583a2.93 2.93 0 1 1 0 5.859h-8.97a2.975 2.975 0 0 0-2.971 2.972 2.981 2.981 0 0 0 2.972 2.984h30.816c3.67 0 5.983-2.353 7.035-3.756 3.689-4.923 8.024-4.805 13.512-4.658.186.006.374.011.562.015z"/></g><g><g><path fill="#f47a60" d="M146.492 166.146C144.487 176.5 138.973 186 130.89 193.94h64.389c.985 0 1.793-.808 1.793-1.783v-31.824c0-.975-.808-1.783-1.793-1.783h-24.87c-1.24 0-1.284-.01-2.38.354z"/></g></g><g><path fill="#201e20" d="M195.277 155.618a4.723 4.723 0 0 1 4.723 4.713v31.824c0 2.598-2.119 4.712-4.723 4.712H4.712A4.718 4.718 0 0 1 0 192.155v-31.824a4.718 4.718 0 0 1 4.712-4.713h20.01c.81 0 1.587.337 2.14.931l11.703 12.536 7.216-3.402 2.04-30.3-5.33-.366c-4.534-.31-8.643-2.822-11.273-6.892-1.634-2.522-3.115-2.685-8.518-2.905l-.698-.03-.006.085c-.296 4.337-3.92 7.669-8.203 7.669-.188 0-.376-.007-.566-.02l-5.359-.365c-4.527-.328-7.949-4.267-7.64-8.781l1.417-20.652a2.93 2.93 0 1 1 5.846.401l-1.417 20.651a2.386 2.386 0 0 0 2.205 2.536l5.347.365a2.374 2.374 0 0 0 2.525-2.205l3.178-46.265a2.328 2.328 0 0 0-.574-1.708 2.349 2.349 0 0 0-1.62-.816l-5.358-.365c-1.284-.086-2.437.917-2.525 2.194l-.808 11.792a2.93 2.93 0 1 1-5.846-.4l.808-11.793c.31-4.523 4.246-7.95 8.77-7.64l5.358.366a8.17 8.17 0 0 1 5.645 2.82 8.188 8.188 0 0 1 1.811 3.546c.394-.312.881-.73 1.525-1.286 1.187-1.022 2.304-2.144 3.383-3.228 3.758-3.774 7.645-7.676 14.246-7.223l5.914.408.784-11.427c.678-9.84 8.623-14.464 16.114-13.95 3.895.268 7.456 1.849 10.026 4.451 2.94 2.977 4.327 6.974 4.011 11.562l-1.594 23.326 5.526.38a9.652 9.652 0 0 1 6.637 3.306c1.716 1.96 2.563 4.456 2.386 7.027a9.59 9.59 0 0 1-1.991 5.243 9.68 9.68 0 0 1 3.874 8.42c-.28 4.053-3.031 7.355-6.678 8.54.62 1.395.92 2.956.81 4.582-.306 4.438-3.572 7.977-7.73 8.82.352 1.07.5 2.205.421 3.36a8.775 8.775 0 0 1-3.014 6.055 8.78 8.78 0 0 1-6.409 2.16l-.634-.044-1.212 18.53 34.52-.001c1.884 0 2.607.171 4.062 1.439.139.121.304.265.505.434l15.118 12.595 14.042-4.724a2.93 2.93 0 1 1 1.868 5.553l-15.463 5.203c-.083.032-.167.06-.251.085l-20.815 7.003c-1.646.548-2.539.702-4.215-.123-.148-.073-.328-.162-.562-.267l-15.217-6.751a2.93 2.93 0 1 1 2.376-5.355l15.225 6.754c.174.078.324.148.457.212l.075-.025 15.96-5.37-12.358-10.296c-.242-.202-.431-.368-.592-.507h-.193l-.407.001H68.444l-28.721 13.54c-2.533 1.155-3.985-.382-4.462-.886l-.07-.074-11.743-12.58H5.859v29.531h188.282v-29.531H170.3c-.304.002-.649 0-.727.011-.086.015-.474.145-.62.193l-14.631 4.925a2.93 2.93 0 0 1-1.869-5.554l14.638-4.927c1.396-.465 1.796-.507 3.191-.507h24.995zM56.688 54.252l-1.604 23.32 18.47 1.266 1.594-23.327c.434-6.308-4.003-9.45-8.594-9.766-2.437-.166-4.836.504-6.583 1.843-1.978 1.517-3.083 3.759-3.283 6.664zm-13.797 74.92l30.74 2.114a2.955 2.955 0 0 0 2.157-.732 2.955 2.955 0 0 0 .287-4.196 2.953 2.953 0 0 0-1.904-1.003l-9.069-.625a2.93 2.93 0 0 1-2.723-3.122 2.924 2.924 0 0 1 3.122-2.724l14.549.997a3.816 3.816 0 0 0 .597-7.61l-10.607-.73a2.93 2.93 0 1 1 .402-5.845l15.469 1.064a3.82 3.82 0 0 0 4.073-3.547 3.824 3.824 0 0 0-3.546-4.073l-14.085-.974c-1.564-.109-2.792-1.487-2.724-3.05.076-1.776 1.632-2.9 3.321-2.783l11.09.762a3.773 3.773 0 0 0 2.758-.933 3.79 3.79 0 0 0 1.304-2.613c.142-2.071-1.496-3.941-3.58-4.085l-8.335-.572c-.037 0-.074-.001-.111-.004-.026-.001-.051-.006-.077-.009l-22.302-1.53c-2.669-.194-4.695-2.516-4.528-5.176l.486-7.05-5.913-.408c-3.752-.26-6.015 1.82-9.692 5.511-1.157 1.162-2.354 2.365-3.708 3.53-2.23 1.927-3.618 2.984-5.452 3.39l-2.486 36.197.536.022c5.501.225 9.846.402 13.198 5.577.952 1.474 3.093 3.978 6.753 4.23zm8.955 33.652l13.615-6.418 1.29-19.72-13.084-.9z"/></g></g></g></svg>