<svg xmlns="http://www.w3.org/2000/svg" width="200" height="126" viewBox="0 0 200 126"><g><g><g><g><path fill="#f47a60" d="M28.22 67.693v40.762h-9.584a4.478 4.478 0 0 1-4.472-4.473v-23.71c.004-.079.004-.158.004-.236a3.278 3.278 0 0 0-1.749-2.807 10.768 10.768 0 0 1-5.749-9.536c0-5.942 4.831-10.773 10.773-10.773 5.942 0 10.777 4.831 10.777 10.773z"/></g><g><path fill="#f47a60" d="M193.335 67.693c0 4.005-2.204 7.66-5.754 9.536a3.275 3.275 0 0 0-1.744 2.811v23.942a4.478 4.478 0 0 1-4.473 4.473h-9.584V67.693c0-5.942 4.836-10.773 10.777-10.773 5.942 0 10.778 4.831 10.778 10.773z"/></g><g><path fill="#201e20" d="M199.891 67.694a17.3 17.3 0 0 1-7.498 14.275v22.014c0 5.194-3.607 9.557-8.451 10.725v7.559a3.278 3.278 0 0 1-3.279 3.279H164.42a3.278 3.278 0 0 1-3.279-3.279v-7.253H38.856v7.253a3.278 3.278 0 0 1-3.28 3.279H19.335a3.278 3.278 0 0 1-3.279-3.279v-7.559c-4.84-1.168-8.451-5.531-8.451-10.725V81.969A17.298 17.298 0 0 1 .11 67.694c0-9.024 6.934-16.461 15.757-17.257V25.8C15.867 11.822 27.24.45 41.217.45H158.78c13.978 0 25.35 11.372 25.35 25.35v24.637c8.823.796 15.761 8.233 15.761 17.257zm-12.312 9.535a10.762 10.762 0 0 0 5.754-9.535c0-5.942-4.835-10.773-10.777-10.773-5.942 0-10.778 4.831-10.778 10.773v40.761h9.584a4.478 4.478 0 0 0 4.473-4.472V80.041a3.275 3.275 0 0 1 1.744-2.812zM177.572 25.8c0-10.361-8.43-18.79-18.792-18.79H41.217c-10.362 0-18.791 8.429-18.791 18.79v25.294c7.135 2.146 12.35 8.775 12.35 16.6v5.304H165.22v-5.303c0-7.826 5.216-14.455 12.352-16.601zm-.188 93.189v-3.974h-9.685v3.974zm-12.164-10.533v-5.482H34.777v5.482zm0-12.04v-16.86H34.777v16.86zM32.298 118.988v-3.974h-9.685v3.974zm-4.08-10.533V67.694c0-5.942-4.835-10.773-10.777-10.773-5.942 0-10.773 4.831-10.773 10.773 0 4.005 2.204 7.66 5.75 9.535a3.278 3.278 0 0 1 1.749 2.807c0 .08 0 .158-.005.236v23.711a4.478 4.478 0 0 0 4.473 4.472z"/></g><g><path fill="#f47a60" d="M177.566 51.094c-7.135 2.147-12.351 8.775-12.351 16.601V73H34.771v-5.303c0-7.827-5.216-14.455-12.351-16.602V25.801c0-10.361 8.43-18.791 18.791-18.791h117.563c10.363 0 18.792 8.43 18.792 18.791zm-24.668-23.84c0-.867-.349-1.71-.962-2.323a3.311 3.311 0 0 0-2.317-.957c-.865 0-1.709.35-2.321.958a3.315 3.315 0 0 0-.958 2.321c0 .861.35 1.705.958 2.317a3.301 3.301 0 0 0 2.321.962c.862 0 1.705-.35 2.317-.962a3.295 3.295 0 0 0 .962-2.317zm0 25.795c0-.866-.349-1.71-.962-2.322a3.312 3.312 0 0 0-2.317-.957c-.865 0-1.709.35-2.321.957a3.315 3.315 0 0 0-.958 2.322c0 .861.35 1.705.958 2.317a3.3 3.3 0 0 0 2.321.962c.862 0 1.705-.35 2.317-.962a3.295 3.295 0 0 0 .962-2.317zm-33.084-25.796c0-.866-.35-1.71-.962-2.322a3.305 3.305 0 0 0-2.317-.957c-.861 0-1.71.35-2.317.958a3.301 3.301 0 0 0-.962 2.321c0 .861.35 1.705.962 2.317a3.292 3.292 0 0 0 2.317.962c.861 0 1.71-.35 2.317-.962a3.299 3.299 0 0 0 .962-2.317zm0 25.796c0-.866-.35-1.71-.962-2.322a3.306 3.306 0 0 0-2.317-.957c-.861 0-1.71.35-2.317.957a3.301 3.301 0 0 0-.962 2.322 3.3 3.3 0 0 0 .962 2.317 3.291 3.291 0 0 0 2.317.962c.861 0 1.71-.35 2.317-.962a3.3 3.3 0 0 0 .962-2.317zM86.73 27.253c0-.866-.35-1.71-.957-2.322a3.316 3.316 0 0 0-2.322-.957c-.861 0-1.705.35-2.317.958a3.301 3.301 0 0 0-.962 2.321c0 .861.35 1.705.962 2.317a3.299 3.299 0 0 0 2.317.962c.866 0 1.71-.35 2.322-.962a3.313 3.313 0 0 0 .957-2.317zm0 25.796c0-.866-.35-1.71-.957-2.322a3.316 3.316 0 0 0-2.322-.957c-.861 0-1.705.35-2.317.957a3.301 3.301 0 0 0-.962 2.322 3.3 3.3 0 0 0 .962 2.317 3.299 3.299 0 0 0 2.317.962c.866 0 1.71-.35 2.322-.962a3.314 3.314 0 0 0 .957-2.317zM53.65 27.253a3.3 3.3 0 0 0-.962-2.322 3.313 3.313 0 0 0-2.317-.957c-.866 0-1.71.35-2.321.958a3.316 3.316 0 0 0-.958 2.321c0 .861.35 1.705.958 2.317a3.301 3.301 0 0 0 2.321.962c.861 0 1.705-.35 2.317-.962a3.298 3.298 0 0 0 .962-2.317zm0 25.796a3.3 3.3 0 0 0-.962-2.322 3.313 3.313 0 0 0-2.317-.957c-.866 0-1.71.35-2.321.957a3.316 3.316 0 0 0-.958 2.322c0 .861.35 1.705.958 2.317a3.301 3.301 0 0 0 2.321.962c.861 0 1.705-.35 2.317-.962a3.299 3.299 0 0 0 .962-2.317z"/></g><g><path fill="#7fe7dc" d="M177.384 115.02v3.974H167.7v-3.974h.8z"/></g><g><path fill="#7fe7dc" d="M165.223 102.97v5.483H34.78v-5.483z"/></g><g><path fill="#f47a60" d="M165.223 79.56H34.78v16.859h130.443z"/></g><g><path fill="#201e20" d="M151.936 24.927c.612.613.962 1.456.962 2.322 0 .861-.35 1.705-.962 2.317a3.299 3.299 0 0 1-2.317.962c-.866 0-1.71-.35-2.321-.962a3.313 3.313 0 0 1-.958-2.317c0-.866.35-1.71.958-2.322a3.316 3.316 0 0 1 2.321-.957c.861 0 1.705.35 2.317.958z"/></g><g><path fill="#201e20" d="M151.936 50.727c.612.613.962 1.456.962 2.322 0 .861-.35 1.705-.962 2.317a3.299 3.299 0 0 1-2.317.962c-.866 0-1.71-.35-2.321-.962a3.313 3.313 0 0 1-.958-2.317c0-.866.35-1.71.958-2.321a3.316 3.316 0 0 1 2.321-.958c.861 0 1.705.35 2.317.957z"/></g><g><path fill="#201e20" d="M118.856 24.927c.612.613.962 1.456.962 2.322 0 .861-.35 1.705-.962 2.317a3.291 3.291 0 0 1-2.317.962c-.861 0-1.71-.35-2.317-.962a3.299 3.299 0 0 1-.962-2.317c0-.866.35-1.71.962-2.322a3.306 3.306 0 0 1 2.317-.957c.861 0 1.71.35 2.317.958z"/></g><g><path fill="#201e20" d="M118.856 50.727c.612.613.962 1.456.962 2.322 0 .861-.35 1.705-.962 2.317a3.291 3.291 0 0 1-2.317.962c-.861 0-1.71-.35-2.317-.962a3.299 3.299 0 0 1-.962-2.317c0-.866.35-1.71.962-2.321a3.306 3.306 0 0 1 2.317-.958c.861 0 1.71.35 2.317.957z"/></g><g><path fill="#201e20" d="M85.78 24.927c.608.613.958 1.456.958 2.322 0 .861-.35 1.705-.957 2.317a3.301 3.301 0 0 1-2.322.962c-.861 0-1.705-.35-2.317-.962a3.299 3.299 0 0 1-.962-2.317c0-.866.35-1.71.962-2.322a3.313 3.313 0 0 1 2.317-.957c.866 0 1.71.35 2.322.958z"/></g><g><path fill="#201e20" d="M85.78 50.727c.608.613.958 1.456.958 2.322 0 .861-.35 1.705-.957 2.317a3.301 3.301 0 0 1-2.322.962c-.861 0-1.705-.35-2.317-.962a3.299 3.299 0 0 1-.962-2.317c0-.866.35-1.71.962-2.321a3.313 3.313 0 0 1 2.317-.958c.866 0 1.71.35 2.322.957z"/></g><g><path fill="#201e20" d="M52.696 24.927c.612.613.962 1.456.962 2.322 0 .861-.35 1.705-.962 2.317a3.299 3.299 0 0 1-2.317.962c-.866 0-1.71-.35-2.321-.962a3.313 3.313 0 0 1-.958-2.317c0-.866.35-1.71.957-2.322a3.316 3.316 0 0 1 2.322-.957c.861 0 1.705.35 2.317.958z"/></g><g><path fill="#201e20" d="M52.696 50.727c.612.613.962 1.456.962 2.322 0 .861-.35 1.705-.962 2.317a3.299 3.299 0 0 1-2.317.962c-.866 0-1.71-.35-2.321-.962a3.313 3.313 0 0 1-.958-2.317c0-.866.35-1.71.957-2.321a3.316 3.316 0 0 1 2.322-.958c.861 0 1.705.35 2.317.957z"/></g><g><path fill="#7fe7dc" d="M32.294 115.02v3.974H22.61v-3.974h8.884z"/></g></g></g></g></svg>