<svg xmlns="http://www.w3.org/2000/svg" width="302" height="74" viewBox="0 0 302 74"><g><g><path fill="#201e20" d="M48.502 37.023c.988 0 1.793.77 1.793 1.714v5.104c0 .944-.805 1.714-1.793 1.714h-28.4c-.988 0-1.794-.77-1.794-1.714v-4.898c0-.34.09-.632.28-.92l17.65-26.55c.36-.542.38-1.182.057-1.745-.323-.562-.9-.888-1.572-.888H20.575c-.988 0-1.793-.77-1.793-1.715V2.021c0-.944.805-1.714 1.793-1.714h27.522c.987 0 1.793.77 1.793 1.714v4.833c0 .34-.089.632-.28.92L31.896 34.388a1.613 1.613 0 0 0-.059 1.745c.324.563.9.89 1.572.89zM0 2.02C0 1.077.806.307 1.793.307h5.678c.988 0 1.794.77 1.794 1.714v41.82c0 .944-.806 1.714-1.794 1.714H1.793c-.987 0-1.793-.77-1.793-1.714zm134.071 36.546c-.281-.66-.917-1.07-1.662-1.07h-14.642c-.804 0-1.486.484-1.717 1.22l-1.937 6.152c-.232.736-.913 1.22-1.717 1.22h-6.249a1.77 1.77 0 0 1-1.456-.714 1.605 1.605 0 0 1-.244-1.546l14.89-42.354c.249-.71.916-1.168 1.7-1.168h8.985c.784 0 1.45.458 1.7 1.168l14.89 42.354c.19.54.104 1.084-.244 1.546a1.77 1.77 0 0 1-1.456.714h-6.441c-.746 0-1.382-.41-1.662-1.07zm-5.254-9.495a1.77 1.77 0 0 0 1.434-.684c.35-.445.451-.972.289-1.506l-3.405-11.262c-.222-.737-.896-1.228-1.698-1.238-.803-.01-1.49.463-1.733 1.194l-3.753 11.261a1.607 1.607 0 0 0 .261 1.532 1.77 1.77 0 0 0 1.448.703zM168.942 9.55c-.988 0-1.794.77-1.794 1.714V20.3c0 .945.806 1.715 1.794 1.715h15.827c.988 0 1.794.77 1.794 1.714v5.815c0 .944-.806 1.714-1.794 1.714h-15.827c-.988 0-1.794.77-1.794 1.714v11.402c0 .944-.805 1.714-1.793 1.714h-6.523c-.988 0-1.794-.77-1.794-1.714V2.02c0-.944.806-1.714 1.794-1.714h26.45c.988 0 1.793.77 1.793 1.714v5.815c0 .945-.805 1.715-1.793 1.715zm34.429-7.18c0-.944.805-1.714 1.793-1.714h5.746c.988 0 1.793.77 1.793 1.714v42.004c0 .944-.805 1.714-1.793 1.714h-5.746c-.988 0-1.793-.77-1.793-1.714zm25.323-.35c0-.944.805-1.714 1.793-1.714h5.678c.988 0 1.793.77 1.793 1.714v42.354c0 .944-.805 1.714-1.793 1.714h-5.678c-.988 0-1.793-.77-1.793-1.714zm32.87 28.995c-.249-.71-.916-1.169-1.7-1.169h-2.665c-.988 0-1.793.77-1.793 1.715v12.813c0 .944-.806 1.714-1.794 1.714h-5.745c-.988 0-1.794-.77-1.794-1.714V2.02c0-.944.806-1.714 1.794-1.714h16.127c4.373 0 8.093 1.465 11.159 4.396 3.065 2.93 4.598 6.464 4.598 10.6 0 2.758-.812 5.323-2.435 7.693a15.163 15.163 0 0 1-5.139 4.714c-.742.418-1.066 1.257-.785 2.036l5.077 14.07c.195.54.112 1.088-.235 1.554-.348.466-.863.72-1.461.72h-6.624c-.784 0-1.451-.459-1.701-1.17zm-6.158-10.704c0 .944.805 1.714 1.793 1.714h6.795c1.759 0 3.269-.657 4.531-1.972 1.262-1.314 1.894-2.898 1.894-4.75 0-1.853-.632-3.426-1.894-4.72-1.262-1.292-2.773-1.938-4.531-1.938h-6.795c-.988 0-1.793.77-1.793 1.714zM300.207.307c.987 0 1.793.77 1.793 1.714v42.354c0 .944-.806 1.714-1.793 1.714h-5.746c-.988 0-1.793-.77-1.793-1.714V2.02c0-.944.805-1.714 1.793-1.714zM94.458 36.239c-4.133 6.083-12.697 9.148-19.165 9.148-6.48 0-11.882-2.182-16.208-6.546-4.327-4.364-6.49-9.747-6.49-16.148 0-6.442 2.24-11.835 6.718-16.178C63.792 2.172 69.445 0 76.272 0c5.348 0 10.098 1.486 14.25 4.458 3.402 2.433 5.775 5.349 7.12 8.745a1.607 1.607 0 0 1-.202 1.58 1.77 1.77 0 0 1-1.475.74h-5.841c-.677 0-1.257-.33-1.579-.9-.928-1.643-2.388-3.047-4.381-4.211-2.348-1.371-4.98-2.058-7.892-2.058-4.392 0-7.947 1.33-10.665 3.99-2.717 2.66-4.076 6.11-4.076 10.35 0 4.405 1.38 7.97 4.141 10.692 2.761 2.722 6.295 4.083 10.6 4.083 3.391 0 6.272-.769 8.641-2.307 1.627-1.055 2.84-2.405 3.636-4.049a1.608 1.608 0 0 0-.115-1.643c-.34-.508-.881-.792-1.512-.792h-8.4c-.989 0-1.794-.77-1.794-1.714v-4.177c0-.944.805-1.714 1.793-1.714H96.61c.497 0 .925.17 1.275.508.35.338.524.75.518 1.224-.037 3.25-.58 7.953-3.9 13.367a1.446 1.446 0 0 1-.044.067z"/></g><g><path fill="#f47a60" d="M302.002 72.287c0 .944-.806 1.714-1.794 1.714h-5.745c-.988 0-1.794-.77-1.794-1.714v-23.03c0-.917.754-1.671 1.712-1.713l5.745-.252c.508-.022.954.137 1.321.473.368.335.555.754.555 1.24zM268.069 50.78a1.603 1.603 0 0 1 .286-1.454 1.764 1.764 0 0 1 1.365-.7l6.718-.294c.842-.037 1.578.47 1.808 1.244l6.607 22.243a1.606 1.606 0 0 1-.294 1.501c-.351.443-.85.681-1.431.681h-7.204c-.824 0-1.521-.512-1.733-1.273zm-12.661 21.507c0 .944-.806 1.714-1.794 1.714h-5.745c-.988 0-1.794-.77-1.794-1.714V51.299c0-.916.753-1.67 1.71-1.712l5.746-.255a1.78 1.78 0 0 1 1.322.473c.367.335.555.754.555 1.24zm-22.35-2.197c-3.268 2.606-7.383 3.911-12.342 3.911-4.96 0-9.074-1.304-12.342-3.91-3.269-2.608-4.903-6.217-4.903-10.828v-6.107c0-.917.755-1.672 1.713-1.713l5.746-.244a1.78 1.78 0 0 1 1.32.474c.366.335.553.753.553 1.239v5.64c0 4.48 2.638 6.723 7.912 6.723 5.32 0 7.98-2.241 7.98-6.723v-6.498c0-.917.755-1.671 1.714-1.712l5.678-.242a1.78 1.78 0 0 1 1.32.473c.366.336.553.754.553 1.239v7.451c0 4.61-1.635 8.221-4.903 10.827zm-65.908 2.197c0 .944-.806 1.714-1.793 1.714h-6.524c-.987 0-1.793-.77-1.793-1.714V55.209c0-.916.753-1.67 1.711-1.712l6.523-.286a1.78 1.78 0 0 1 1.321.473c.368.335.555.754.555 1.24z"/></g></g></svg>