<svg xmlns="http://www.w3.org/2000/svg" width="25" height="25" viewBox="0 0 25 25"><g><g><path fill="#201e20" d="M25 4.687v15.625c0 1.291-.459 2.396-1.375 3.313-.917.917-2.021 1.375-3.312 1.375H4.688c-1.292 0-2.396-.459-3.313-1.375C.458 22.708 0 21.603 0 20.312V4.687c0-1.29.458-2.395 1.375-3.312C2.292.458 3.396 0 4.688 0h15.625c1.291 0 2.395.458 3.312 1.375C24.542 2.292 25 3.396 25 4.687zm-4.166 12.647c0-.119-.01-.206-.032-.26-.033-.087-.242-.247-.627-.48a29.079 29.079 0 0 0-1.44-.806l-.863-.471a6.125 6.125 0 0 1-.31-.213 2.508 2.508 0 0 0-.406-.244.83.83 0 0 0-.342-.081c-.196 0-.45.176-.765.529-.315.352-.624.708-.928 1.066-.304.358-.543.537-.716.537a.802.802 0 0 1-.269-.057 2.478 2.478 0 0 1-.529-.26 5.762 5.762 0 0 1-.228-.138c-1.074-.597-2-1.283-2.775-2.06-.776-.775-1.462-1.7-2.06-2.775a6.894 6.894 0 0 1-.292-.504 2.52 2.52 0 0 1-.106-.253.794.794 0 0 1-.057-.268c0-.141.112-.323.334-.545.222-.223.466-.432.732-.627.266-.195.51-.41.733-.643.222-.233.334-.431.334-.594a.827.827 0 0 0-.082-.342 2.49 2.49 0 0 0-.244-.407 5.765 5.765 0 0 1-.212-.31 34.279 34.279 0 0 0-.651-1.204c-.14-.249-.284-.507-.431-.773a6.609 6.609 0 0 0-.407-.659c-.125-.173-.214-.27-.269-.293a.757.757 0 0 0-.26-.032c-.52 0-1.069.119-1.644.358-.499.228-.933.74-1.302 1.538-.369.797-.553 1.505-.553 2.124 0 .173.013.358.04.553.027.196.054.361.082.497a9.3 9.3 0 0 0 .31 1.017 53.487 53.487 0 0 1 .381 1.025c.651 1.78 1.826 3.518 3.524 5.216 1.698 1.698 3.437 2.873 5.217 3.524a65.817 65.817 0 0 1 1.025.382c.097.038.257.093.48.163.222.07.401.12.537.147.136.027.3.054.496.08.195.028.38.042.554.042.618 0 1.326-.185 2.124-.554.797-.37 1.31-.804 1.538-1.303.24-.573.359-1.121.359-1.642z"/></g></g></svg>