<svg xmlns="http://www.w3.org/2000/svg" width="80" height="66" viewBox="0 0 80 66"><g><g><path fill="#f47a60" d="M63.704 34.723L33.953 64.475c-.347.346-.727.677-1.123.974a5.937 5.937 0 0 0 1.535.198h27.969a6.151 6.151 0 0 0 6.142-6.142V34.492a33.159 33.159 0 0 1-4.078-.512 14.27 14.27 0 0 1-.694.743z"/></g><g><path fill="#f47a60" d="M79.56 24.866c-.694 1.65-2.79 4.424-9.13 4.457-2.56.017-5.466-.429-8.454-1.271a8.842 8.842 0 0 1-1.948 2.972L30.259 60.792a6.148 6.148 0 0 1-8.684 0l-19.78-19.78a6.148 6.148 0 0 1 0-8.684L31.531 2.56A8.753 8.753 0 0 1 37.838 0l17.83.265a6.724 6.724 0 0 1 6.638 6.637v.05c.842.28 1.684.594 2.51.94 4.556 1.9 8.568 4.442 11.326 7.2l.148.148c4.442 4.524 3.946 7.974 3.27 9.626zM39.851 30.99a10.812 10.812 0 0 0-1.37-2.543c-.743-1.023-.743-1.023.148-1.915 1.255-1.271 1.255-1.271 0-2.526l-.545-.545c-.61-.578-.809-.578-1.42 0-.28.264-.544.528-.809.793-.792.792-.792.776-1.816.297-2.493-1.156-4.854-1.04-6.967.825-1.866 1.651-2.13 3.765-1.552 6.076.347 1.437 1.023 2.74 1.552 4.095.214.528.38 1.073.43 1.634.164 1.651-1.256 2.74-2.808 2.13a4.785 4.785 0 0 1-2.047-1.568c-.842-1.09-1.519-2.262-1.932-3.583-.247-.776-.462-.859-1.188-.479a66.14 66.14 0 0 0-1.85 1.024c-.825.462-.908.693-.594 1.601.396 1.172 1.04 2.213 1.767 3.203.561.776.561.826-.132 1.536-.314.313-.628.644-.942.957-.396.397-.429.826-.033 1.239.463.462.925.94 1.404 1.386.38.38.792.364 1.172-.016.43-.43.892-.842 1.304-1.288.413-.462.826-.495 1.37-.182a6.686 6.686 0 0 0 4.013.876c3.913-.38 6.39-4.21 5.267-8.107-.347-1.222-.859-2.394-1.338-3.566-.28-.677-.511-1.37-.594-2.097-.165-1.453 1.024-2.328 2.377-1.8.38.149.694.397.991.66a8.883 8.883 0 0 1 2.477 3.716c.247.726.478.809 1.155.462.71-.363 1.42-.776 2.114-1.156.478-.264.577-.644.396-1.14zm32.74-12.102l-.1-.1c-2.261-2.261-5.761-4.474-9.658-6.092-.148-.066-.28-.115-.429-.181l.1 7.165a46.62 46.62 0 0 1-2.56-.974c-2.493-1.04-4.838-2.311-6.786-3.698.215-1.536-.247-3.154-1.436-4.342a5.102 5.102 0 0 0-7.199 0 5.102 5.102 0 0 0 0 7.198 5.102 5.102 0 0 0 7.199 0c.066-.082.148-.165.214-.248 2.031 1.486 4.508 2.873 7.182 3.98 9.098 3.797 15.091 2.625 15.652 1.287.182-.446-.033-1.832-2.179-3.995z"/></g></g></svg>