<svg xmlns="http://www.w3.org/2000/svg" width="80" height="80" viewBox="0 0 80 80"><g><g><path fill="#f47a60" d="M24.397 4.43l-.434-.5C21.223 1.308 17.628 0 14.036 0c-3.597 0-7.188 1.308-9.93 3.94-5.356 5.129-5.465 13.35-.368 18.628 3.966-8.46 11.45-15.071 20.66-18.138z"/></g><g><path fill="#f47a60" d="M75.89 5.255c-2.737-2.627-6.337-3.935-9.934-3.935-3.591 0-7.183 1.308-9.921 3.935l-.475.48c9.225 3.067 16.726 9.698 20.695 18.153 5.107-5.277 4.998-13.504-.364-18.633z"/></g><g><path fill="#f47a60" d="M65.496 66.986c-.09.082-.181.152-.262.232l9.07 8.696s.43 4.46-4.248 4.063l-9.48-9.083c-6.17 4.118-13.362 6.21-20.578 6.21-7.217 0-14.405-2.092-20.571-6.21l-9.492 9.083c-4.537-.892-4.246-4.063-4.246-4.063l9.075-8.696c-.083-.082-.177-.152-.265-.232-14.092-13.494-14.092-35.353 0-48.838C21.536 11.406 30.763 8.03 39.998 8.03c9.23 0 18.464 3.378 25.501 10.118 14.09 13.485 14.09 35.344-.002 48.838zm1.551-24.423c0-6.918-2.816-13.424-7.926-18.311-5.107-4.9-11.897-7.586-19.123-7.586-7.222 0-14.011 2.694-19.126 7.586-5.105 4.887-7.921 11.398-7.921 18.311 0 6.854 2.765 13.301 7.777 18.174.123.109.247.213.366.327l1.513 1.431 1.983 1.323a27.7 27.7 0 0 0 15.413 4.653 27.727 27.727 0 0 0 15.418-4.653l1.957-1.304 1.531-1.45a7.66 7.66 0 0 1 .369-.332c4.996-4.832 7.77-11.298 7.77-18.169zm-23.377-2.74h16.717c2.058 0 3.728 1.599 3.728 3.577 0 1.983-1.672 3.58-3.728 3.58l-16.717-.01v.01h-7.464V23.821c0-1.966 1.67-3.567 3.739-3.567 2.058 0 3.73 1.603 3.73 3.567z"/></g></g></svg>