<svg xmlns="http://www.w3.org/2000/svg" width="63" height="74" viewBox="0 0 63 74"><g><g><path fill="#f47a60" d="M62.183 22.298a2.48 2.48 0 0 1 0 3.448l-6.084 6.287 1.226 8.666a2.48 2.48 0 0 1-2.028 2.79l-6.897 1.21v26.82a2.48 2.48 0 0 1-3.589 2.219l-13.37-6.683-13.372 6.683a2.477 2.477 0 0 1-2.413-.109 2.48 2.48 0 0 1-1.176-2.11V44.7l-6.897-1.21a2.48 2.48 0 0 1-2.027-2.79l1.225-8.665-6.083-6.287a2.48 2.48 0 0 1 0-3.45L6.78 16.01 5.556 7.349a2.48 2.48 0 0 1 2.027-2.79l8.618-1.511 4.1-7.73a2.48 2.48 0 0 1 3.28-1.065l7.86 3.84 7.858-3.84a2.48 2.48 0 0 1 3.28 1.065l4.102 7.73 8.616 1.51a2.48 2.48 0 0 1 2.027 2.79L56.1 16.01zM43.44 67.508V51.105l-.86 1.622a2.481 2.481 0 0 1-3.281 1.065L31.44 49.95l-7.86 3.843a2.48 2.48 0 0 1-3.28-1.065l-.86-1.623v16.402l10.891-5.444a2.48 2.48 0 0 1 2.218 0zm13.51-43.486l-5.26-5.435a2.481 2.481 0 0 1-.672-2.072l1.06-7.486-7.448-1.305a2.481 2.481 0 0 1-1.762-1.28L39.322-.238l-6.792 3.32a2.48 2.48 0 0 1-2.178 0l-6.794-3.32-3.543 6.681a2.48 2.48 0 0 1-1.763 1.281L10.803 9.03l1.059 7.485a2.481 2.481 0 0 1-.673 2.072l-5.258 5.435 5.258 5.434c.532.55.78 1.314.673 2.072l-1.059 7.49 7.449 1.306a2.478 2.478 0 0 1 1.762 1.28l3.544 6.68 6.793-3.323a2.476 2.476 0 0 1 2.18 0l6.792 3.322 3.545-6.68a2.48 2.48 0 0 1 1.762-1.28l7.447-1.305-1.059-7.49a2.48 2.48 0 0 1 .673-2.072z"/></g><g><path fill="#f47a60" d="M48.4 24.018c0 9.353-7.608 16.962-16.959 16.962-9.352 0-16.961-7.609-16.961-16.962 0-9.35 7.609-16.958 16.961-16.958 9.351 0 16.959 7.607 16.959 16.958zm-4.96 0c0-6.616-5.383-11.998-11.999-11.998-6.617 0-12 5.382-12 11.998 0 6.618 5.383 12.002 12 12.002 6.616 0 11.999-5.384 11.999-12.002z"/></g><g><path fill="#f47a60" d="M36.496 17.726l-7.325 7.325-2.788-2.785a2.48 2.48 0 1 0-3.505 3.51l4.54 4.535a2.471 2.471 0 0 0 1.753.726c.635 0 1.27-.242 1.754-.726l9.078-9.077a2.48 2.48 0 1 0-3.507-3.508z"/></g></g></svg>